<svg width="19" height="20" viewBox="0 0 19 20" fill="none" xmlns="http://www.w3.org/2000/svg">
<path d="M1 11.125C1 10.504 1.476 10 2.0625 10H4.1875C4.774 10 5.25 10.504 5.25 11.125V17.875C5.25 18.496 4.774 19 4.1875 19H2.0625C1.78071 19 1.51046 18.8815 1.3112 18.6705C1.11194 18.4595 1 18.1734 1 17.875V11.125ZM7.375 6.625C7.375 6.004 7.851 5.5 8.4375 5.5H10.5625C11.149 5.5 11.625 6.004 11.625 6.625V17.875C11.625 18.496 11.149 19 10.5625 19H8.4375C8.15571 19 7.88546 18.8815 7.6862 18.6705C7.48694 18.4595 7.375 18.1734 7.375 17.875V6.625ZM13.75 2.125C13.75 1.504 14.226 1 14.8125 1H16.9375C17.524 1 18 1.504 18 2.125V17.875C18 18.496 17.524 19 16.9375 19H14.8125C14.5307 19 14.2605 18.8815 14.0612 18.6705C13.8619 18.4595 13.75 18.1734 13.75 17.875V2.125Z" fill="#568256" stroke="#105610" stroke-width="1.5" stroke-linecap="round" stroke-linejoin="round"/>
</svg>
